<svg version="1.1" xmlns="http://www.w3.org/2000/svg" xmlns:xlink="http://www.w3.org/1999/xlink" x="0px" y="0px" viewBox="0 0 226.8 283.5">
    <style type="text/css">
        .tdnd-logo-svg-backg{fill:#F2F1F0;}
        .tdnd-logo-svg-foreground{fill:#000000;}
    </style>
    <path class="tdnd-logo-svg-backg" d="M87.5,30.9L68.2,41.1c0-19.9,0-32.9,0-32.9h-42v267.6c0,0,42,5,42-21.4c0-0.5,0-1.2,0-2.3h19.3V30.9z"/>
    <g>
        <path class="tdnd-logo-svg-foreground" d="M121.5,67.6c2.5,2.5,5.5,4.5,9,5.9c3.5,1.4,7.6,2.2,12.1,2.2c4.1,0,7.8-0.6,11.2-1.8 c3.4-1.2,6.3-2.9,8.8-5.1c2.5-2.1,4.4-4.6,5.8-7.4l-13.9-3.9c-0.8,2-2.3,3.5-4.4,4.7c-2.1,1.2-4.4,1.7-6.9,1.7 c-2,0-3.8-0.4-5.6-1.2c-1.8-0.8-3.2-2-4.3-3.6c-1.1-1.6-1.8-3.5-2-5.9h39.6c0.1-0.7,0.2-1.5,0.3-2.4c0.1-0.9,0.2-1.8,0.2-2.8  c0-4.8-1.1-9.3-3.4-13.4c-2.2-4.1-5.5-7.5-9.7-10c-4.3-2.5-9.4-3.8-15.5-3.8c-6.1,0-11.2,1.3-15.5,3.9c-4.3,2.6-7.6,6-9.8,10.1 c-2.3,4.2-3.4,8.8-3.4,13.9c0,3.6,0.6,7,1.9,10.3C117.2,62.2,119.1,65.1,121.5,67.6z M132.8,37.5c1-1.6,2.4-2.8,4-3.7 c1.7-0.9,3.6-1.3,5.7-1.3c2,0,3.9,0.4,5.6,1.3c1.7,0.9,3.1,2.1,4.1,3.7c1,1.6,1.7,3.5,1.9,5.6h-23.3 C131.2,41,131.8,39.1,132.8,37.5z"/>
        <polygon class="tdnd-logo-svg-foreground" points="156.1,131.6 144.4,93.1 127.6,93.1 146.6,146.2 164.3,146.2 183.2,93.1 167.9,93.1"/>
        <path class="tdnd-logo-svg-foreground" d="M166.7,161.3l-9.5,15l-1,1.9l-1-1.9l-9.5-15h-16.8l18,26.7l-18.4,26.4h16.8l10-14.9l0.9-1.9l0.9,1.9l10,14.9 H184l-18.4-26.7l14.3-21v7h6.8v27.6c0,3.4,0.7,6.2,2,8.3c1.3,2.1,3.1,3.6,5.4,4.5c2.3,0.9,4.8,1.4,7.5,1.4c1.9,0,3.8-0.2,5.8-0.6 c2-0.4,3.9-0.9,5.7-1.5c1.8-0.6,3.5-1.2,4.9-1.8l-3.2-13c-1,0.5-2.1,0.9-3.4,1.3c-1.3,0.4-2.6,0.6-3.7,0.6 c-1.4,0-2.5-0.4-3.4-1.1c-0.9-0.8-1.3-2-1.3-3.7v-21.9H214v-12.4h-10.9v-17.1h-16.3v17.1h-3.2h-3.7H166.7z"/>
        <path class="tdnd-logo-svg-foreground" d="M182.6,236.8c-2.4-2.6-5.4-4.6-9-6c-3.5-1.5-7.6-2.2-12.1-2.2c-4.6,0-8.6,0.7-12.2,2.2c-3.6,1.5-6.6,3.5-9,6 c-2.4,2.6-4.3,5.5-5.6,8.8c-0.6,1.5-1,3-1.3,4.5c-0.3-1.5-0.7-3-1.3-4.5c-1.3-3.3-3.2-6.2-5.6-8.8c-2.4-2.6-5.4-4.6-9-6 s-7.6-2.2-12.1-2.2c-4.6,0-8.6,0.7-12.2,2.2c-3.6,1.5-6.6,3.5-9,6c-2.4,2.6-4.3,5.5-5.6,8.8c-0.6,1.6-1.1,3.3-1.4,4.9 c0.1-1.5,0.2-2.9,0.2-4.5c0-6.7-1.4-12.8-4.1-18.2c-2.7-5.5-6.8-9.8-12.1-13.1c-5.3-3.2-12-4.9-20-4.9H31v-37.1l33.2,41.5h13.7 v-23.1c0.3,2.5,0.8,5,1.8,7.4c1.3,3.3,3.2,6.1,5.7,8.6c2.5,2.5,5.5,4.5,9,5.9c3.5,1.4,7.6,2.2,12.1,2.2c4.1,0,7.8-0.6,11.2-1.8 c3.4-1.2,6.3-2.9,8.8-5.1s4.4-4.6,5.8-7.4l-13.9-3.9c-0.8,2-2.3,3.5-4.4,4.7c-2.1,1.2-4.4,1.7-6.9,1.7c-2,0-3.8-0.4-5.6-1.2 c-1.8-0.8-3.2-2-4.3-3.6c-1.1-1.6-1.8-3.5-2-5.9h39.6c0.1-0.7,0.2-1.5,0.3-2.4c0.1-0.9,0.2-1.8,0.2-2.8c0-4.8-1.1-9.3-3.4-13.4 c-2.2-4.1-5.5-7.5-9.7-10c-4.3-2.5-9.4-3.8-15.5-3.8c-6.1,0-11.2,1.3-15.5,3.9c-4.3,2.6-7.6,6-9.8,10.1c-1.8,3.3-2.9,7-3.3,10.9 v-43.6H61.1v42.7L31,146.2h10.3c7.3,0,13.6-1.5,19-4.5c5.4-3,9.6-7.2,12.6-12.7c1.7-3.1,2.9-6.6,3.7-10.3c0,0.5,0,1,0,1.5 c0,3.6,0.6,7,1.9,10.3c1.3,3.3,3.2,6.1,5.7,8.6c2.5,2.5,5.5,4.5,9,5.9c3.5,1.4,7.6,2.2,12.1,2.2c4.1,0,7.8-0.6,11.2-1.8 c3.4-1.2,6.3-2.9,8.8-5.1c2.5-2.1,4.4-4.6,5.8-7.4l-13.9-3.9c-0.8,2-2.3,3.5-4.4,4.7c-2.1,1.2-4.4,1.7-6.9,1.7 c-2,0-3.8-0.4-5.6-1.2c-1.8-0.8-3.2-2-4.3-3.6c-1.1-1.6-1.8-3.5-2-5.9h39.6c0.1-0.7,0.2-1.5,0.3-2.4c0.1-0.9,0.2-1.8,0.2-2.8 c0-4.8-1.1-9.3-3.4-13.4c-2.2-4.1-5.5-7.5-9.7-10c-4.3-2.5-9.4-3.8-15.5-3.8c-6.1,0-11.2,1.3-15.5,3.9c-4.3,2.6-7.6,6-9.8,10.1 c-1.2,2.3-2.1,4.7-2.7,7.2c0.1-1.2,0.2-2.5,0.2-3.7c0-6.7-1.4-12.8-4.1-18.2c-2.7-5.5-6.8-9.8-12.1-13.1c-5.3-3.2-12-4.9-20-4.9 h-2.4V16.8h22v57.9h16.3V44.3c0.7-1.8,1.7-3.4,3-4.8c1.3-1.4,2.7-2.4,4.2-3.2c1.5-0.8,2.9-1.1,4.1-1.1c2.3,0,4.2,0.8,5.6,2.4 c1.4,1.6,2.1,4.1,2.1,7.5v29.5h16.3V40.8c0-2.3-0.2-4.6-0.6-6.9c-0.4-2.3-1.2-4.5-2.3-6.5c-1.2-2-2.8-3.6-5.1-4.8 c-2.2-1.2-5.2-1.8-8.8-1.8c-3.9,0-7.4,0.9-10.7,2.6c-3.2,1.7-5.8,4.1-7.8,7.3V0H60.9v2H0v14.7h22.1v56.8h-7.9v68.1v4.4v63.7v4.4 v68.1h27c7.3,0,13.6-1.5,19-4.5c5.4-3,9.6-7.2,12.6-12.7c1.9-3.4,3.2-7.2,3.9-11.4c-0.1,0.7-0.1,1.5-0.1,2.2 c0,3.6,0.6,7.1,1.9,10.4c1.3,3.3,3.1,6.2,5.6,8.8c2.4,2.6,5.5,4.6,9,6c3.6,1.5,7.6,2.2,12.2,2.2c4.6,0,8.6-0.7,12.1-2.2 c3.5-1.5,6.5-3.5,9-6c2.4-2.6,4.3-5.5,5.6-8.8c0.6-1.5,1-3,1.3-4.5c0.3,1.5,0.7,3,1.3,4.5c1.3,3.3,3.1,6.2,5.6,8.8 c2.4,2.6,5.5,4.6,9,6c3.6,1.5,7.6,2.2,12.2,2.2c4.6,0,8.6-0.7,12.1-2.2c3.5-1.5,6.5-3.5,9-6c2.4-2.6,4.3-5.5,5.6-8.8 c1.3-3.3,1.9-6.7,1.9-10.4c0-3.7-0.6-7.2-1.9-10.5C186.9,242.3,185,239.4,182.6,236.8z M96.5,177.2c1-1.6,2.4-2.8,4-3.7 c1.7-0.9,3.6-1.3,5.7-1.3c2,0,3.9,0.4,5.6,1.3c1.7,0.9,3.1,2.1,4.1,3.7c1,1.6,1.7,3.5,1.9,5.6H94.6 C94.9,180.7,95.5,178.8,96.5,177.2z M95.4,109.1c1-1.6,2.4-2.8,4-3.7c1.7-0.9,3.6-1.3,5.7-1.3c2,0,3.9,0.4,5.6,1.3 c1.7,0.9,3.1,2.1,4.1,3.7c1,1.6,1.7,3.5,1.9,5.6H93.4C93.7,112.5,94.4,110.7,95.4,109.1z M51.6,91c2.9,1.8,5,4.3,6.5,7.6 c1.5,3.2,2.2,7,2.2,11.2c0,4.1-0.8,7.8-2.2,11.1c-1.5,3.3-3.7,5.9-6.5,7.8c-2.8,1.9-6.3,2.8-10.4,2.8H31V88.3h10.3 C45.3,88.3,48.7,89.2,51.6,91z M58.1,257.1c-1.5,3.3-3.7,5.9-6.5,7.8c-2.8,1.9-6.3,2.8-10.4,2.8H31v-43.1h10.3 c4,0,7.4,0.9,10.3,2.7c2.9,1.8,5,4.3,6.5,7.6c1.5,3.2,2.2,7,2.2,11.2C60.3,250.1,59.6,253.8,58.1,257.1z M115.6,263.1 c-1,2.1-2.4,3.7-4.2,4.8c-1.8,1.2-3.8,1.7-6.1,1.7c-2.3,0-4.4-0.6-6.1-1.7c-1.8-1.1-3.2-2.7-4.2-4.8c-1.1-2.1-1.6-4.4-1.6-7.1 c0-2.7,0.5-5.1,1.6-7.1c1.1-2,2.5-3.6,4.2-4.8c1.8-1.1,3.8-1.7,6.1-1.7c2.2,0,4.3,0.6,6.1,1.7c1.8,1.1,3.2,2.7,4.2,4.8 c1,2.1,1.5,4.4,1.5,7.1C117.2,258.7,116.7,261.1,115.6,263.1z M171.8,263.1c-1,2.1-2.4,3.7-4.2,4.8c-1.8,1.2-3.8,1.7-6.1,1.7 c-2.3,0-4.4-0.6-6.1-1.7c-1.8-1.1-3.2-2.7-4.2-4.8c-1.1-2.1-1.6-4.4-1.6-7.1c0-2.7,0.5-5.1,1.6-7.1c1.1-2,2.5-3.6,4.2-4.8 c1.8-1.1,3.8-1.7,6.1-1.7c2.2,0,4.3,0.6,6.1,1.7c1.8,1.1,3.2,2.7,4.2,4.8c1,2.1,1.5,4.4,1.5,7.1 C173.3,258.7,172.8,261.1,171.8,263.1z"/>
        <path class="tdnd-logo-svg-foreground" d="M225.8,228c-0.4,0-0.9,0-1.7,0c-3.2,0.1-6.3,1.1-9.2,3.2c-2.9,2-5.3,4.9-7.1,8.5v-10.2h-15v53h16.3v-32.2 c1.4-2.5,3.7-4.3,6.9-5.6s6.8-1.9,10.7-1.9v-14.7C226.5,228,226.2,228,225.8,228z"/>
    </g>
</svg>
